<?xml version="1.0" encoding="UTF-8"?> <svg xmlns="http://www.w3.org/2000/svg" width="32" height="32" viewBox="0 0 32 32" fill="none"><path d="M1.62531 15.9811C1.62531 17.8688 1.99713 19.7381 2.71954 21.4822C3.44195 23.2262 4.5008 24.8109 5.83565 26.1457C7.17049 27.4806 8.75518 28.5394 10.4992 29.2618C12.2433 29.9843 14.1126 30.3561 16.0003 30.3561C17.8881 30.3561 19.7573 29.9843 21.5014 29.2618C23.2454 28.5394 24.8301 27.4806 26.165 26.1457C27.4998 24.8109 28.5587 23.2262 29.2811 21.4822C30.0035 19.7381 30.3753 17.8688 30.3753 15.9811C30.3753 14.0933 30.0035 12.2241 29.2811 10.48C28.5587 8.73595 27.4998 7.15126 26.165 5.81642C24.8301 4.48158 23.2454 3.42272 21.5014 2.70031C19.7573 1.9779 17.8881 1.60608 16.0003 1.60608C14.1126 1.60608 12.2433 1.9779 10.4992 2.70031C8.75518 3.42272 7.17049 4.48158 5.83565 5.81642C4.5008 7.15126 3.44195 8.73595 2.71954 10.48C1.99713 12.2241 1.62531 14.0933 1.62531 15.9811V15.9811Z" stroke="#AB3A2E" stroke-width="2" stroke-linecap="round" stroke-linejoin="round"></path><path d="M1.84137 13.4805H9.44637C9.93891 13.4802 10.4267 13.5771 10.8818 13.7654C11.3369 13.9537 11.7505 14.2298 12.0989 14.578L13.5001 15.9792C14.1767 16.6555 14.5691 17.5648 14.5973 18.5211C14.6254 19.4773 14.287 20.4081 13.6514 21.123L11.9476 23.0392C11.3374 23.7256 11.0002 24.612 11.0001 25.5305V29.4617" stroke="#AB3A2E" stroke-width="2" stroke-linecap="round" stroke-linejoin="round"></path><path d="M26.3262 5.98047H19.0762C18.3303 5.98047 17.6149 6.27678 17.0874 6.80423C16.56 7.33168 16.2637 8.04705 16.2637 8.79297C16.2637 9.53889 16.56 10.2543 17.0874 10.7817C17.6149 11.3092 18.3303 11.6055 19.0762 11.6055H19.6162C20.2342 11.6046 20.8429 11.7564 21.3882 12.0476C21.9334 12.3387 22.3981 12.7601 22.7412 13.2742L25.5137 17.4355C25.8566 17.9498 26.3213 18.3715 26.8665 18.6628C27.4117 18.9542 28.0205 19.1062 28.6387 19.1055H30.0399" stroke="#AB3A2E" stroke-width="2" stroke-linecap="round" stroke-linejoin="round"></path></svg> 