<?xml version="1.0" encoding="UTF-8"?> <svg xmlns="http://www.w3.org/2000/svg" width="33" height="32" viewBox="0 0 33 32" fill="none"><g clip-path="url(#clip0_2565_27433)"><path fill-rule="evenodd" clip-rule="evenodd" d="M21.0714 26.3295H18.1251C18.1251 26.3295 17.6647 25.5733 17.0865 24.6394C15.9522 22.817 14.9909 21.7735 14.9762 20.2649C14.9762 18.8432 16.0369 17.535 16.512 16.7637C16.9871 15.9924 18.1582 14.1171 18.4271 13.7012C18.7586 13.2021 19.4104 12.1548 20.449 12.8504C21.4029 13.4894 20.8173 14.3628 20.53 14.7976C20.2833 15.1757 18.173 18.5219 18.0109 18.7752C17.8489 19.0285 17.1381 20.0229 17.3664 20.5333C17.7347 21.3349 18.4713 22.3217 19.7124 24.2689C20.449 25.4297 21.0604 26.3333 21.0604 26.3333L21.0714 26.3295Z" fill="#AB3A2E"></path><path fill-rule="evenodd" clip-rule="evenodd" d="M6.93198 14.1158C3.46268 14.3992 0.5 12.3621 0.5 12.3621L1.70049 10.371C1.70049 10.371 4.8504 12.4613 7.60381 11.7385C10.0268 11.1044 10.46 10.495 11.3301 9.80413C12.2002 9.11327 15.7356 5 19.616 5C23.6287 5 25.5377 9.63407 25.5377 9.63407C25.5996 9.76079 25.6349 9.89806 25.6417 10.038C25.6484 10.1779 25.6264 10.3178 25.5769 10.4495C25.5275 10.5812 25.4515 10.7021 25.3534 10.8054C25.2553 10.9087 25.1371 10.9922 25.0054 11.0512C24.0949 11.5047 23.5369 10.7253 23.3277 10.3745C23.1184 10.0238 21.8665 7.27098 19.6968 7.27098C17.127 7.27098 14.8985 9.63407 12.4645 11.8767C10.8528 13.3576 8.33071 14.0024 6.93198 14.1158Z" fill="#AB3A2E"></path><path fill-rule="evenodd" clip-rule="evenodd" d="M23.0133 18.7138C22.7829 18.7206 22.5556 18.6591 22.36 18.5371C20.9162 17.7255 22.8148 15.4026 23.5981 14.0824C24.2031 13.022 25.0518 12.1207 26.0742 11.4529C26.9279 10.9269 27.9085 10.6426 28.9113 10.6305C28.9113 10.6305 28.1389 9.48702 27.9187 9.14435C27.6985 8.80168 27.5072 7.91435 28.2074 7.49593C29.4491 6.75288 30.1061 8.17045 30.5211 8.79808C30.9362 9.4257 31.7303 10.6593 31.9216 10.9623C32.1129 11.2653 32.8421 12.1202 32.3079 12.9029C31.7736 13.6856 30.781 13.2852 30.2865 13.1626C29.6565 12.9358 28.9767 12.8834 28.3193 13.0111C27.5072 13.2167 26.6987 13.7325 25.7927 14.9805C25.1236 15.9651 24.5207 16.993 23.9879 18.0574C23.8853 18.2329 23.7444 18.3832 23.5757 18.4968C23.4069 18.6105 23.2147 18.6847 23.0133 18.7138V18.7138Z" fill="#AB3A2E"></path></g><defs><clipPath id="clip0_2565_27433"><rect width="32" height="32" fill="white" transform="translate(0.5)"></rect></clipPath></defs></svg> 