<?xml version="1.0" encoding="UTF-8"?> <svg xmlns="http://www.w3.org/2000/svg" width="32" height="32" viewBox="0 0 32 32" fill="none"><path d="M1.62531 16.8344L8.8928 9.56567L12.4291 13.1019L1.62531 23.9057" stroke="#AB3A2E" stroke-width="2" stroke-linecap="round" stroke-linejoin="round"></path><path d="M20.855 8.23633L23.5005 10.8818L18.1972 16.1851L15.5517 13.5396L20.855 8.23633Z" stroke="#AB3A2E" stroke-width="2" stroke-linecap="round" stroke-linejoin="round"></path><path d="M18.6165 6.91529L15.5227 3.82154C14.8263 3.12496 13.9994 2.5724 13.0894 2.19541C12.1794 1.81842 11.204 1.62439 10.219 1.62439C9.23397 1.62439 8.2586 1.81842 7.34857 2.19541C6.43855 2.5724 5.6117 3.12496 4.91524 3.82154L3.90024 4.83654C3.80997 4.92685 3.74953 5.04265 3.72705 5.16835C3.70457 5.29404 3.72113 5.42361 3.7745 5.53962C3.82787 5.65562 3.9155 5.75249 4.02558 5.8172C4.13567 5.8819 4.26293 5.91134 4.39024 5.90154L5.01524 5.85404C6.09175 5.77184 7.17327 5.92409 8.18524 6.30029C8.49712 6.41639 8.77482 6.60898 8.99286 6.86039C9.21089 7.1118 9.36226 7.41396 9.43307 7.73913C9.50388 8.06429 9.49185 8.40204 9.39809 8.72134C9.30434 9.04065 9.13185 9.33128 8.89649 9.56654L12.429 13.1028C12.8994 12.6325 13.5365 12.3669 14.2016 12.3636C14.8668 12.3603 15.5064 12.6197 15.9815 13.0853L15.9877 13.0915L20.4065 8.67279L18.6165 6.91529Z" stroke="#AB3A2E" stroke-width="2" stroke-linecap="round" stroke-linejoin="round"></path><path d="M30.3753 24.1238C30.3753 24.4553 30.2436 24.7732 30.0092 25.0077C29.7748 25.2421 29.4568 25.3738 29.1253 25.3738H25.3753C25.0438 25.3738 24.7258 25.2421 24.4914 25.0077C24.257 24.7732 24.1253 24.4553 24.1253 24.1238C24.1253 23.7923 24.257 23.4743 24.4914 23.2399C24.7258 23.0055 25.0438 22.8738 25.3753 22.8738H29.1253C29.4568 22.8738 29.7748 23.0055 30.0092 23.2399C30.2436 23.4743 30.3753 23.7923 30.3753 24.1238Z" stroke="#AB3A2E" stroke-width="2" stroke-linecap="round" stroke-linejoin="round"></path><path d="M27.25 25.375V30.375" stroke="#AB3A2E" stroke-width="2" stroke-linecap="round" stroke-linejoin="round"></path></svg> 