<?xml version="1.0" encoding="UTF-8"?> <svg xmlns="http://www.w3.org/2000/svg" width="32" height="32" viewBox="0 0 32 32" fill="none"><path d="M24.3699 19.2596C25.8556 19.2596 27.0599 18.0553 27.0599 16.5696C27.0599 15.084 25.8556 13.8796 24.3699 13.8796C22.8843 13.8796 21.6799 15.084 21.6799 16.5696C21.6799 18.0553 22.8843 19.2596 24.3699 19.2596Z" stroke="#AB3A2E" stroke-width="2" stroke-linecap="round" stroke-linejoin="round"></path><path d="M28.7635 22.6178C27.8826 21.4787 26.5931 20.7268 25.1679 20.521C23.7426 20.3153 22.2932 20.6718 21.126 21.5153" stroke="#AB3A2E" stroke-width="2" stroke-linecap="round" stroke-linejoin="round"></path><path d="M7.62997 19.2596C9.11562 19.2596 10.32 18.0553 10.32 16.5696C10.32 15.084 9.11562 13.8796 7.62997 13.8796C6.14433 13.8796 4.93997 15.084 4.93997 16.5696C4.93997 18.0553 6.14433 19.2596 7.62997 19.2596Z" stroke="#AB3A2E" stroke-width="2" stroke-linecap="round" stroke-linejoin="round"></path><path d="M3.2348 22.6165C4.11624 21.4773 5.40596 20.7253 6.83155 20.5193C8.25714 20.3134 9.70697 20.6696 10.8748 21.5128" stroke="#AB3A2E" stroke-width="2" stroke-linecap="round" stroke-linejoin="round"></path><path d="M22.2497 25.0901C22.2497 23.4325 21.5912 21.8428 20.4191 20.6707C19.247 19.4986 17.6573 18.8401 15.9997 18.8401C14.3421 18.8401 12.7524 19.4986 11.5803 20.6707C10.4082 21.8428 9.74969 23.4325 9.74969 25.0901" stroke="#AB3A2E" stroke-width="2" stroke-linecap="round" stroke-linejoin="round"></path><path d="M15.936 17.1363C17.976 17.1363 19.6297 15.4825 19.6297 13.4425C19.6297 11.4025 17.976 9.74878 15.936 9.74878C13.896 9.74878 12.2422 11.4025 12.2422 13.4425C12.2422 15.4825 13.896 17.1363 15.936 17.1363Z" stroke="#AB3A2E" stroke-width="2" stroke-linecap="round" stroke-linejoin="round"></path><path d="M15.9998 30.3744C23.9389 30.3744 30.3748 23.9385 30.3748 15.9994C30.3748 8.0603 23.9389 1.62439 15.9998 1.62439C8.06075 1.62439 1.62485 8.0603 1.62485 15.9994C1.62485 23.9385 8.06075 30.3744 15.9998 30.3744Z" stroke="#AB3A2E" stroke-width="2" stroke-linecap="round" stroke-linejoin="round"></path></svg> 